# xmcd CD database file
#
# Track frame offsets:
#	150
#	1687
#	20514
#	35121
#	52732
#	75659
#	81172
#	99602
#	117586
#	135985
#	152099
#	154177
#	171021
#	190278
#	209389
#	219744
#	231576
#	248922
#	262584
#	273757
#	289521
#
# Disc length: 4083 seconds
#
# Revision: 2
# Processed by: cddbd v1.5.2PL0 Copyright (c) Steve Scherf et al.
# Submitted via: CDex 1.70beta2
#
DISCID=170ff115
DTITLE=Юг - Пока Никто Не Умер
DYEAR=2004
DGENRE=Rap
TTITLE0=Начало
TTITLE1=Стали Старше
TTITLE2=Бьется Сердце
TTITLE3=Глядя Вверх Feat Рива
TTITLE4=Одно И Тоже Feat.Эл Соло
TTITLE5=Желтая Рубашечка  Skit
TTITLE6=Гастрольная Feat. Каста , Змей
TTITLE7=Родителям Full Version
TTITLE8=Культуре Посвящаю Feat. Карандаш
TTITLE9=Игры Патриотов
TTITLE10=Вышеназванные Skit
TTITLE11=Мутно
TTITLE12=Сделай Вдох Feat. Рива
TTITLE13=Картинки 99 Тактов
TTITLE14=Пушка  Skit
TTITLE15=Три Хороших Девочки
TTITLE16=Пока Никто Не Умер
TTITLE17=Зеркала
TTITLE18=Отбивная 2 Feat. Сир Джей
TTITLE19=Холоднокровные
TTITLE20=Остаюсь Таким Же
EXTD=YEAR: 2004
EXTT0=
EXTT1=
EXTT2=
EXTT3=
EXTT4=
EXTT5=
EXTT6=
EXTT7=
EXTT8=
EXTT9=
EXTT10=
EXTT11=
EXTT12=
EXTT13=
EXTT14=
EXTT15=
EXTT16=
EXTT17=
EXTT18=
EXTT19=
EXTT20=
PLAYORDER=
